<svg width="64" height="37" viewBox="0 0 64 37" fill="none" xmlns="http://www.w3.org/2000/svg">
<g clip-path="url(#clip0_3_21)">
<mask id="mask0_3_21" style="mask-type:luminance" maskUnits="userSpaceOnUse" x="0" y="5" width="64" height="32">
<path d="M63.5027 5H0.497314V36.36H63.5027V5Z" fill="white"/>
</mask>
<g mask="url(#mask0_3_21)">
<path d="M13.7374 27.4002C14.0372 27.4002 14.3341 27.3423 14.611 27.2297C14.888 27.1172 15.1396 26.9522 15.3516 26.7442C15.5636 26.5362 15.7318 26.2893 15.8465 26.0175C15.9612 25.7457 16.0203 25.4545 16.0203 25.1603C16.0203 21.0017 17.7038 17.0134 20.7006 14.0728C23.6973 11.1322 27.7619 9.48023 31.9999 9.48023C36.2379 9.48023 40.3025 11.1322 43.2992 14.0728C46.296 17.0134 47.9795 21.0017 47.9795 25.1603C47.9855 25.7505 48.2286 26.3145 48.6562 26.7298C49.0835 27.145 49.6607 27.378 50.2624 27.378C50.8638 27.378 51.4411 27.145 51.8684 26.7298C52.2959 26.3145 52.5391 25.7505 52.545 25.1603C52.545 22.5129 52.0136 19.8913 50.9812 17.4454C49.9486 14.9995 48.4353 12.7771 46.5276 10.905C44.6196 9.033 42.3547 7.54802 39.8622 6.53489C37.3694 5.52176 34.698 5.00031 31.9999 5.00031C29.3018 5.00031 26.6304 5.52176 24.1376 6.53489C21.645 7.54802 19.3801 9.033 17.4723 10.905C15.5645 12.7771 14.0512 14.9995 13.0187 17.4454C11.9862 19.8913 11.4548 22.5129 11.4548 25.1603C11.4548 25.7544 11.6953 26.3241 12.1233 26.7441C12.5514 27.1642 13.132 27.4002 13.7374 27.4002Z" fill="url(#paint0_linear_3_21)"/>
<path d="M61.2206 31.8801H41.1243C42.6122 29.9444 43.4158 27.5852 43.4133 25.1604C43.4133 22.1899 42.2107 19.3412 40.0702 17.2407C37.9296 15.1403 35.0263 13.9603 31.9991 13.9603C28.9721 13.9603 26.0689 15.1403 23.9282 17.2407C21.7877 19.3412 20.5851 22.1899 20.5851 25.1604C20.5851 25.7545 20.8256 26.3242 21.2538 26.7443C21.6819 27.1644 22.2626 27.4004 22.868 27.4004C23.4736 27.4004 24.0542 27.1644 24.4822 26.7443C24.9105 26.3242 25.1509 25.7545 25.1509 25.1604C25.1509 23.8313 25.5525 22.532 26.305 21.4269C27.0575 20.3217 28.1271 19.4604 29.3785 18.9517C30.6299 18.4431 32.0069 18.31 33.3353 18.5692C34.6637 18.8285 35.8841 19.4685 36.8418 20.4083C37.7996 21.3481 38.4519 22.5455 38.7163 23.8491C38.9804 25.1526 38.8448 26.5038 38.3266 27.7316C37.8081 28.9596 36.9304 30.0093 35.8041 30.7477C34.6779 31.4861 33.3538 31.8801 31.9993 31.8801H2.78037C2.47867 31.8772 2.17937 31.9329 1.89976 32.0443C1.62016 32.1554 1.3658 32.32 1.1514 32.5282C0.936992 32.7366 0.766787 32.9844 0.650632 33.2577C0.534476 33.531 0.47467 33.8241 0.47467 34.1202C0.47467 34.4161 0.534476 34.7093 0.650632 34.9825C0.766787 35.2558 0.936992 35.5036 1.1514 35.712C1.3658 35.9202 1.62016 36.0848 1.89976 36.1959C2.17937 36.3073 2.47867 36.363 2.78037 36.3601H61.2206C61.822 36.3543 62.3968 36.1157 62.82 35.6961C63.2432 35.2768 63.4807 34.7104 63.4807 34.1202C63.4807 33.5298 63.2432 32.9634 62.82 32.5441C62.3968 32.1246 61.822 31.886 61.2206 31.8801Z" fill="url(#paint1_linear_3_21)"/>
</g>
</g>
<defs>
<linearGradient id="paint0_linear_3_21" x1="45.2624" y1="0.48437" x2="38.0164" y2="38.691" gradientUnits="userSpaceOnUse">
<stop stop-color="#FE0178"/>
<stop offset="1" stop-color="#F7EFA4"/>
</linearGradient>
<linearGradient id="paint1_linear_3_21" x1="52.3139" y1="9.44439" x2="47.492" y2="48.4288" gradientUnits="userSpaceOnUse">
<stop stop-color="#FE0178"/>
<stop offset="1" stop-color="#F7EFA4"/>
</linearGradient>
<clipPath id="clip0_3_21">
<rect width="63.0054" height="36.36" fill="white" transform="translate(0.497314)"/>
</clipPath>
</defs>
</svg>
