<svg width="25" height="19" viewBox="0 0 25 19" fill="none" xmlns="http://www.w3.org/2000/svg">
<path d="M21.8516 4.71155V2.35999L12.5 8.21155L3.14844 2.35999V4.71155L12.5 10.5084L21.8516 4.71155ZM21.8516 0.00842285C22.4714 0.00842285 23 0.245402 23.4375 0.71936C23.9115 1.19332 24.1484 1.74019 24.1484 2.35999V16.36C24.1484 16.9798 23.9115 17.5267 23.4375 18.0006C23 18.4746 22.4714 18.7115 21.8516 18.7115H3.14844C2.52865 18.7115 1.98177 18.4746 1.50781 18.0006C1.07031 17.5267 0.851562 16.9798 0.851562 16.36V2.35999C0.851562 1.74019 1.07031 1.19332 1.50781 0.71936C1.98177 0.245402 2.52865 0.00842285 3.14844 0.00842285H21.8516Z" fill="#B1B1B1"/>
</svg>
