<svg width="19" height="25" viewBox="0 0 19 25" fill="none" xmlns="http://www.w3.org/2000/svg">
<path d="M13.1094 8.71155V6.35999C13.1094 5.37561 12.7448 4.53707 12.0156 3.84436C11.3229 3.11519 10.4844 2.75061 9.5 2.75061C8.51562 2.75061 7.65885 3.11519 6.92969 3.84436C6.23698 4.53707 5.89062 5.37561 5.89062 6.35999V8.71155H13.1094ZM7.85938 18.5006C8.33333 18.9746 8.88021 19.2115 9.5 19.2115C10.1198 19.2115 10.6667 18.9746 11.1406 18.5006C11.6146 18.0267 11.8516 17.4798 11.8516 16.86C11.8516 16.2402 11.6146 15.6933 11.1406 15.2194C10.6667 14.7454 10.1198 14.5084 9.5 14.5084C8.88021 14.5084 8.33333 14.7454 7.85938 15.2194C7.38542 15.6933 7.14844 16.2402 7.14844 16.86C7.14844 17.4798 7.38542 18.0267 7.85938 18.5006ZM16.5 8.71155C17.1198 8.71155 17.6667 8.94853 18.1406 9.42249C18.6146 9.85999 18.8516 10.3886 18.8516 11.0084V22.7115C18.8516 23.3313 18.6146 23.8782 18.1406 24.3522C17.6667 24.7897 17.1198 25.0084 16.5 25.0084H2.5C1.88021 25.0084 1.33333 24.7897 0.859375 24.3522C0.385417 23.8782 0.148438 23.3313 0.148438 22.7115V11.0084C0.148438 10.3886 0.385417 9.85999 0.859375 9.42249C1.33333 8.94853 1.88021 8.71155 2.5 8.71155H3.64844V6.35999C3.64844 4.75582 4.21354 3.38863 5.34375 2.25842C6.51042 1.09176 7.89583 0.508423 9.5 0.508423C11.1042 0.508423 12.4714 1.09176 13.6016 2.25842C14.7682 3.38863 15.3516 4.75582 15.3516 6.35999V8.71155H16.5Z" fill="#B1B1B1"/>
</svg>
