<svg width="19" height="20" viewBox="0 0 19 20" fill="none" xmlns="http://www.w3.org/2000/svg">
<path d="M3.32031 13.6641C5.47135 12.7891 7.53125 12.3516 9.5 12.3516C11.4688 12.3516 13.5104 12.7891 15.625 13.6641C17.776 14.5026 18.8516 15.6146 18.8516 17V19.3516H0.148438V17C0.148438 15.6146 1.20573 14.5026 3.32031 13.6641ZM12.7812 8.63281C11.8698 9.54427 10.776 10 9.5 10C8.22396 10 7.13021 9.54427 6.21875 8.63281C5.30729 7.72135 4.85156 6.6276 4.85156 5.35156C4.85156 4.07552 5.30729 2.98177 6.21875 2.07031C7.13021 1.1224 8.22396 0.648438 9.5 0.648438C10.776 0.648438 11.8698 1.1224 12.7812 2.07031C13.6927 2.98177 14.1484 4.07552 14.1484 5.35156C14.1484 6.6276 13.6927 7.72135 12.7812 8.63281Z" fill="#B1B1B1"/>
</svg>
