<svg width="158" height="80" viewBox="0 0 158 80" fill="none" xmlns="http://www.w3.org/2000/svg">
<mask id="mask0_3_17" style="mask-type:luminance" maskUnits="userSpaceOnUse" x="0" y="0" width="158" height="80">
<path d="M157.23 0H0.769989V79.3629H157.23V0Z" fill="white"/>
</mask>
<g mask="url(#mask0_3_17)">
<path d="M33.6489 56.6882C34.3933 56.6882 35.1305 56.5417 35.8183 56.2569C36.5061 55.972 37.131 55.5545 37.6574 55.0281C38.1838 54.5018 38.6014 53.8769 38.8863 53.1891C39.1712 52.5013 39.3179 51.7642 39.3179 51.0198C39.3179 40.4955 43.4986 30.4023 50.9404 22.9606C58.382 15.5188 68.4755 11.3381 78.9997 11.3381C89.5239 11.3381 99.6174 15.5188 107.059 22.9606C114.501 30.4023 118.682 40.4955 118.682 51.0198C118.696 52.5134 119.3 53.9407 120.362 54.9917C121.423 56.0425 122.856 56.6321 124.351 56.6321C125.844 56.6321 127.278 56.0425 128.339 54.9917C129.4 53.9407 130.004 52.5134 130.019 51.0198C130.019 44.3198 128.699 37.6855 126.136 31.4956C123.571 25.3057 119.813 19.6814 115.076 14.9438C110.338 10.2062 104.714 6.4482 98.524 3.88427C92.3338 1.32032 85.6998 0.000671387 78.9997 0.000671387C72.2996 0.000671387 65.6657 1.32032 59.4754 3.88427C53.2855 6.4482 47.6612 10.2062 42.9236 14.9438C38.186 19.6814 34.428 25.3057 31.864 31.4956C29.3001 37.6855 27.9804 44.3198 27.9804 51.0198C27.9804 52.5231 28.5777 53.9649 29.6407 55.0279C30.7037 56.0909 32.1455 56.6882 33.6489 56.6882Z" fill="white"/>
<path d="M151.563 68.0256H101.658C105.353 63.1269 107.349 57.1563 107.342 51.0198C107.342 43.5025 104.356 36.2931 99.0406 30.9776C93.7247 25.662 86.5151 22.6758 78.9977 22.6758C71.4809 22.6758 64.2714 25.662 58.9555 30.9776C53.6399 36.2931 50.6537 43.5025 50.6537 51.0198C50.6537 52.5234 51.2509 53.9653 52.3141 55.0284C53.3773 56.0915 54.8192 56.6888 56.3227 56.6888C57.8264 56.6888 59.2685 56.0915 60.3313 55.0284C61.3947 53.9653 61.9918 52.5234 61.9918 51.0198C61.9918 47.6563 62.9889 44.3682 64.8577 41.5715C66.7264 38.7747 69.3824 36.5949 72.49 35.3076C75.5976 34.0203 79.017 33.6835 82.3158 34.3396C85.6147 34.9958 88.6453 36.6154 91.0234 38.9938C93.4021 41.3721 95.0218 44.4024 95.6783 47.7013C96.3342 51.0002 95.9975 54.4196 94.7105 57.527C93.423 60.6345 91.2436 63.291 88.4467 65.1597C85.6498 67.0285 82.3617 68.0256 78.9983 68.0256H6.43952C5.69032 68.0183 4.94707 68.1592 4.25273 68.441C3.5584 68.7223 2.92677 69.1388 2.39434 69.6657C1.86191 70.1932 1.43924 70.8202 1.1508 71.5118C0.862349 72.2034 0.713837 72.9453 0.713837 73.6946C0.713837 74.4433 0.862349 75.1853 1.1508 75.8769C1.43924 76.5684 1.86191 77.1955 2.39434 77.7229C2.92677 78.2498 3.5584 78.6664 4.25273 78.9476C4.94707 79.2295 5.69032 79.3704 6.43952 79.363H151.563C153.056 79.3483 154.484 78.7445 155.535 77.6828C156.585 76.6216 157.175 75.1881 157.175 73.6946C157.175 72.2005 156.585 70.767 155.535 69.7059C154.484 68.6442 153.056 68.0403 151.563 68.0256Z" fill="#F4F4F4"/>
</g>
</svg>
